<?xml version="1.0" encoding="UTF-8"?>
<svg version="1.1" xmlns="http://www.w3.org/2000/svg" width="762" height="502">
<path d="M0 0 C251.46 0 502.92 0 762 0 C762 165.66 762 331.32 762 502 C510.54 502 259.08 502 0 502 C0 336.34 0 170.68 0 0 Z " fill="#1D1D1D" transform="translate(0,0)"/>
<path d="M0 0 C10.7248006 7.52617586 16.01799542 18.18310965 18.64038086 30.78753662 C19.66257322 37.0763097 19.50883256 43.47763262 19.41162109 49.82983398 C19.37437231 52.35505313 19.37060813 54.87882767 19.37109375 57.40429688 C19.36128574 59.01563776 19.34963898 60.62696876 19.3359375 62.23828125 C19.33371185 62.9902327 19.33148621 63.74218414 19.32919312 64.516922 C19.23240475 69.76759525 19.23240475 69.76759525 17 72 C14.31160615 72.26991906 11.70858064 72.08737357 9 72 C9 74.31 9 76.62 9 79 C9.71655762 78.98952637 10.43311523 78.97905273 11.17138672 78.96826172 C14.40588905 78.92678701 17.64033553 78.90070108 20.875 78.875 C22.00292969 78.85824219 23.13085938 78.84148437 24.29296875 78.82421875 C25.36933594 78.81777344 26.44570313 78.81132812 27.5546875 78.8046875 C28.54968262 78.79421387 29.54467773 78.78374023 30.56982422 78.77294922 C33 79 33 79 35 81 C35.19835865 83.57383576 35.27277216 86.04006534 35.25878906 88.61499023 C35.2622937 89.40050262 35.26579834 90.18601501 35.26940918 90.99533081 C35.27823345 93.5998409 35.27237439 96.20408075 35.265625 98.80859375 C35.26697159 100.61458895 35.26891207 102.4205838 35.27142334 104.22657776 C35.27437566 108.01542607 35.27007403 111.8041802 35.26074219 115.59301758 C35.24935573 120.45340962 35.25590132 125.3135806 35.26788712 130.1739645 C35.27510977 133.90482757 35.27281578 137.63563812 35.26763153 141.36650276 C35.26629574 143.15869231 35.26794031 144.95088659 35.27259064 146.7430706 C35.27766162 149.24738079 35.26993729 151.75133184 35.25878906 154.25561523 C35.26283752 154.99909714 35.26688599 155.74257904 35.27105713 156.5085907 C35.2403617 160.22482043 35.11744267 161.82383599 33 165 C30.88540649 165.37752342 30.88540649 165.37752342 28.21728516 165.38095093 C27.20772766 165.3894104 26.19817017 165.39786987 25.15802002 165.40658569 C24.04626404 165.400513 22.93450806 165.39444031 21.7890625 165.38818359 C20.62155457 165.39344055 19.45404663 165.39869751 18.25115967 165.40411377 C15.04450945 165.41507654 11.83822902 165.41247702 8.63158417 165.40297651 C5.27993957 165.39539489 1.92830485 165.40242135 -1.42333984 165.40713501 C-7.05245415 165.41259696 -12.68145047 165.40538953 -18.31054688 165.39111328 C-24.82375989 165.37478581 -31.3366912 165.38007401 -37.84989738 165.3965925 C-43.43635919 165.41019495 -49.02273605 165.41213315 -54.60920906 165.40427649 C-57.94823289 165.3995931 -61.2871518 165.39899329 -64.62615967 165.40888596 C-68.3473235 165.41646973 -72.06793966 165.40493876 -75.7890625 165.38818359 C-76.90081848 165.39425629 -78.01257446 165.40032898 -79.15802002 165.40658569 C-80.16757751 165.39812622 -81.17713501 165.38966675 -82.21728516 165.38095093 C-83.53800522 165.37925431 -83.53800522 165.37925431 -84.88540649 165.37752342 C-85.58322235 165.25294069 -86.28103821 165.12835796 -87 165 C-89.63296948 161.05054579 -89.26854424 157.6746937 -89.23046875 153.09375 C-89.23050903 152.19296722 -89.23054932 151.29218445 -89.23059082 150.36410522 C-89.22718178 147.40925779 -89.20826391 144.45477307 -89.1875 141.5 C-89.17861915 139.46761143 -89.16991266 137.43522208 -89.16137695 135.40283203 C-89.12920117 129.26828586 -89.06876206 123.13423265 -89 117 C-88.99033203 116.07409058 -88.98066406 115.14818115 -88.97070312 114.19421387 C-88.91625285 109.17775551 -88.84221382 104.16233829 -88.73452759 99.14672852 C-88.70327875 97.63721273 -88.67653552 96.12759668 -88.65438843 94.61791992 C-88.62154281 92.53368973 -88.56960818 90.4508523 -88.51171875 88.3671875 C-88.48553467 87.20300293 -88.45935059 86.03881836 -88.43237305 84.83935547 C-88 82 -88 82 -86.78710938 80.12036133 C-84.37654767 78.6091499 -82.72913587 78.65787626 -79.89453125 78.70703125 C-78.91162109 78.71669922 -77.92871094 78.72636719 -76.91601562 78.73632812 C-75.89185547 78.76146484 -74.86769531 78.78660156 -73.8125 78.8125 C-72.25885742 78.83280273 -72.25885742 78.83280273 -70.67382812 78.85351562 C-68.11536301 78.88888611 -65.5579422 78.93824456 -63 79 C-63 76.69 -63 74.38 -63 72 C-65.97 71.67 -68.94 71.34 -72 71 C-72.07492194 65.66555753 -72.12896171 60.33143054 -72.16479492 54.99658203 C-72.17975449 53.18695735 -72.20012957 51.3773681 -72.22631836 49.56787109 C-72.44922341 33.75472431 -70.89739815 20.9847452 -62.3125 7.3125 C-45.02763899 -9.97236101 -20.62577547 -13.37888139 0 0 Z " fill="#C5AC68" transform="translate(392,110)"/>
<path d="M0 0 C0.57363281 0.36609375 1.14726562 0.7321875 1.73828125 1.109375 C7.10433486 4.52931812 12.47765577 7.93718913 17.86254883 11.32739258 C19.50352382 12.36397857 21.14136738 13.40553755 22.77612305 14.4519043 C26.56630476 16.8727495 30.35370355 19.22932699 34.30078125 21.38671875 C43.48068754 26.52660185 43.48068754 26.52660185 45.0078125 30.859375 C45.25 33.8125 45.25 33.8125 45.078125 36.51953125 C44.989698 39.32708835 45.47139227 40.6704437 47 43 C49.70042181 44.3502109 51.92451627 44.24311007 54.9375 44.3125 C55.99839844 44.34988281 57.05929687 44.38726562 58.15234375 44.42578125 C61.05910763 44.25885543 61.05910763 44.25885543 62.875 42.3125 C64.22256266 39.54251009 64.17073666 37.74843263 64.0625 34.6875 C64.29263709 31.28526708 64.41984436 29.56967677 66.89233398 27.1418457 C67.71032471 26.61679443 68.52831543 26.09174316 69.37109375 25.55078125 C70.27786865 24.96143799 71.18464355 24.37209473 72.11889648 23.76489258 C77.62903331 20.38951938 83.18896799 17.11811506 88.7890625 13.89453125 C94.37036814 10.64794079 99.68893013 7.20750959 104.90625 3.40039062 C107 2 107 2 110 1 C110 20.47 110 39.94 110 60 C55.055 60.495 55.055 60.495 -1 61 C-1.020625 51.120625 -1.04125 41.24125 -1.0625 31.0625 C-1.07615601 26.37752319 -1.07615601 26.37752319 -1.09008789 21.59790039 C-1.09300678 19.13948612 -1.0955554 16.68107136 -1.09765625 14.22265625 C-1.10277222 12.9322644 -1.10788818 11.64187256 -1.11315918 10.31237793 C-1.11334045 8.48531311 -1.11334045 8.48531311 -1.11352539 6.62133789 C-1.115746 5.55766495 -1.11796661 4.493992 -1.12025452 3.39808655 C-1 1 -1 1 0 0 Z " fill="#21201F" transform="translate(310,208)"/>
<path d="M0 0 C8.49051397 6.22731406 12.87068334 14.69727827 15.359375 24.73046875 C15.51859882 27.47648039 15.59465895 30.11164622 15.5546875 32.8515625 C15.5518576 33.59632339 15.54902771 34.34108429 15.54611206 35.1084137 C15.53501417 37.46176976 15.5099301 39.81472984 15.484375 42.16796875 C15.47433172 43.774083 15.46520824 45.38020329 15.45703125 46.98632812 C15.43510907 50.90119171 15.40065261 54.81576335 15.359375 58.73046875 C10.54931641 57.94384766 10.54931641 57.94384766 8.83984375 56.0234375 C8.41316406 55.32863281 7.98648438 54.63382813 7.546875 53.91796875 C4.4753869 49.54247291 1.48104542 47.29219022 -3.640625 45.73046875 C-10.08026576 44.79568219 -13.75518149 46.43308075 -19.34375 49.63671875 C-21.640625 50.73046875 -21.640625 50.73046875 -25.640625 50.73046875 C-27.6471688 49.40700369 -29.64690675 48.07317696 -31.640625 46.73046875 C-34.06522287 45.89554521 -34.06522287 45.89554521 -36.640625 45.73046875 C-37.713125 45.60671875 -38.785625 45.48296875 -39.890625 45.35546875 C-44.979172 45.86432345 -48.63827515 47.55124368 -52.640625 50.73046875 C-54.12748788 52.81438797 -55.29493455 54.83753807 -56.375 57.15625 C-56.79265625 57.67574219 -57.2103125 58.19523437 -57.640625 58.73046875 C-60.21972656 58.82885742 -60.21972656 58.82885742 -62.640625 58.73046875 C-62.71549739 54.07148645 -62.76956332 49.4128642 -62.80541992 44.75341797 C-62.82038771 43.17262664 -62.84076937 41.59187597 -62.86694336 40.01123047 C-63.11026103 24.92553486 -61.38843736 14.0484033 -50.72265625 2.6875 C-36.22133358 -10.88759049 -16.12576473 -10.14120297 0 0 Z " fill="#232222" transform="translate(388.640625,116.26953125)"/>
<path d="M0 0 C10.1475 -0.061875 10.1475 -0.061875 20.5 -0.125 C22.61986328 -0.14320801 24.73972656 -0.16141602 26.92382812 -0.18017578 C28.62629952 -0.18602348 30.32877373 -0.19111838 32.03125 -0.1953125 C32.89717773 -0.20554443 33.76310547 -0.21577637 34.65527344 -0.22631836 C42.61378399 -0.22857673 49.70372609 0.68314648 56 6 C60.67903565 11.69071903 62.4184105 16.96164022 61.8125 24.2578125 C60.83775764 30.24841656 58.27479529 33.80651875 54 38 C53.34 38.66 52.68 39.32 52 40 C53.3921875 40.9590625 53.3921875 40.9590625 54.8125 41.9375 C59.72762102 46.11071596 60.73432724 51.2072732 61.328125 57.44921875 C61.47936631 59.82118662 61.60254111 62.19518966 61.69140625 64.5703125 C61.95106575 68.65662822 61.95106575 68.65662822 64 75 C58.72 75 53.44 75 48 75 C45.95649891 70.91299782 45.50580884 68.18106959 45 63.6875 C44.18397339 56.17990887 44.18397339 56.17990887 42 49 C37.1030725 45.2539277 31.54771481 45.46150821 25.625 45.3125 C22.44875 45.209375 19.2725 45.10625 16 45 C16 54.57 16 64.14 16 74 C10.72 74 5.44 74 0 74 C0 49.58 0 25.16 0 0 Z " fill="#9B7035" transform="translate(178,299)"/>
<path d="M0 0 C251.46 0 502.92 0 762 0 C762 0.99 762 1.98 762 3 C761.34621391 3.00008822 760.69242781 3.00017644 760.01883002 3.00026734 C688.86575308 3.01004558 617.71267853 3.02598596 546.55961609 3.07429504 C544.96623836 3.07537422 544.96623836 3.07537422 543.34067118 3.0764752 C520.25707821 3.09214661 497.17348617 3.10892873 474.08989485 3.12685562 C462.77029789 3.13563974 451.45070076 3.14417833 440.13110352 3.15258789 C438.44141712 3.15384946 438.44141712 3.15384946 436.71759565 3.15513652 C400.18217769 3.18229982 363.64677668 3.19323835 327.1113494 3.19579524 C289.57773039 3.19850746 252.04415431 3.21752386 214.51055526 3.25716115 C209.21357679 3.26274738 203.91659815 3.26814652 198.61961937 3.27343178 C197.05578185 3.27500083 197.05578185 3.27500083 195.46035165 3.27660158 C178.65366269 3.29298259 161.84701654 3.29209081 145.04032302 3.28479717 C128.15867233 3.27783754 111.27711098 3.28893809 94.39548431 3.3186629 C84.35621667 3.33578582 74.3171691 3.33887245 64.27789954 3.32217421 C57.5796011 3.31239466 50.88148359 3.3205928 44.18321806 3.34366048 C40.36144663 3.35629988 36.54011726 3.36088432 32.7183539 3.34362926 C28.60877265 3.32525608 24.50028839 3.34517781 20.39073658 3.36914349 C19.19419519 3.35761276 17.99765379 3.34608204 16.76485357 3.3342019 C10.42498826 3.40765353 10.42498826 3.40765353 4.7650075 6.01976585 C2.50625295 9.83369721 2.30521889 13.00255651 2.36914349 17.31460285 C2.35795709 18.57180902 2.35795709 18.57180902 2.34654471 19.8544133 C2.32756522 22.67587373 2.34431628 25.4959988 2.36076355 28.31745911 C2.35445488 30.35530868 2.34595388 32.39315245 2.33544332 34.43098468 C2.31288088 40.04079612 2.3215239 45.65019757 2.3351289 51.26002204 C2.34437059 57.3056987 2.32486257 63.35128932 2.30880737 69.39694214 C2.28493503 79.87473656 2.27919295 90.35243074 2.28615379 100.83024025 C2.2933791 111.82022941 2.29029893 122.81013595 2.27343178 133.80011559 C2.27186781 134.82480348 2.27186781 134.82480348 2.27027224 135.87019214 C2.26492354 139.33938973 2.2593905 142.808587 2.25378648 146.27778419 C2.21441696 170.85503149 2.19818901 195.4322451 2.19555664 220.00952148 C2.19294629 243.88714504 2.17986224 267.7647253 2.15258789 291.64233398 C2.15133325 292.74620188 2.15133325 292.74620188 2.15005327 293.87237015 C2.14164203 301.26264844 2.13301775 308.65292647 2.12423737 316.04320434 C2.1063553 331.09827483 2.08989528 346.15334677 2.07429504 361.2084198 C2.073576 361.90063939 2.07285697 362.59285898 2.07211614 363.30605492 C2.02425666 409.53735583 2.00965088 455.76867699 2 502 C1.34 502 0.68 502 0 502 C0 336.34 0 170.68 0 0 Z " fill="#FEFEFE" transform="translate(0,0)"/>
<path d="M0 0 C1.08087891 -0.01740234 1.08087891 -0.01740234 2.18359375 -0.03515625 C7.33989814 -0.00718353 10.88193995 1.09191413 15.5 3.375 C16.7684375 3.931875 16.7684375 3.931875 18.0625 4.5 C23.49147388 8.67613376 26.71538104 14.85332794 28.5 21.375 C29.60522497 31.50194503 27.83244213 39.1803108 22.375 47.6875 C15.03566967 54.54817835 6.67551119 56.73661312 -3.1328125 56.66015625 C-9.84048707 56.09210492 -15.74108172 53.13391828 -20.5 48.375 C-27.31115912 38.83550725 -27.67684045 28.93063007 -26.109375 17.53515625 C-24.44878565 11.47826303 -20.48836922 7.07442818 -15.5 3.375 C-10.15430292 0.56011603 -5.89392839 -0.0948933 0 0 Z " fill="#E9DD90" transform="translate(390.5,318.625)"/>
<path d="M0 0 C6.27 0 12.54 0 19 0 C19 1.32 19 2.64 19 4 C21.64 4 24.28 4 27 4 C27.66 2.68 28.32 1.36 29 0 C36.2265322 -0.05058332 43.45301899 -0.08568412 50.6796875 -0.10986328 C53.13966579 -0.11993983 55.59963206 -0.13360131 58.05957031 -0.15087891 C61.58922285 -0.17505461 65.11871747 -0.1864664 68.6484375 -0.1953125 C70.30629776 -0.21079636 70.30629776 -0.21079636 71.99765015 -0.22659302 C73.52901108 -0.22681961 73.52901108 -0.22681961 75.09130859 -0.22705078 C76.44366104 -0.23371262 76.44366104 -0.23371262 77.82333374 -0.24050903 C80 0 80 0 82 2 C82 2.99 82 3.98 82 5 C85.43793339 4.81870185 85.43793339 4.81870185 89 4 C89.66 2.68 90.32 1.36 91 0 C96.94 0 102.88 0 109 0 C106.39375804 7.81872589 103.75780965 10.87727434 96.765625 15.03125 C96.16876892 15.38964966 95.57191284 15.74804932 94.95697021 16.11730957 C93.0598659 17.25390125 91.15530179 18.37721561 89.25 19.5 C87.36572917 20.62292487 85.48305607 21.74848393 83.6007843 22.87475586 C82.38249916 23.6010126 81.16179257 24.32322348 79.93864441 25.04125977 C76.79083736 26.89347858 73.7886756 28.85053731 70.81640625 30.96875 C66.08017468 33.92873715 61.15492448 33.99780319 55.6875 34 C54.64239258 34.00362549 53.59728516 34.00725098 52.52050781 34.01098633 C40.32554599 33.5688309 31.30606527 27.68088377 21.90917969 20.37426758 C19.91452983 18.93847678 18.39920792 18.42842998 16 18 C16 17.34 16 16.68 16 16 C15.1646875 15.8453125 15.1646875 15.8453125 14.3125 15.6875 C8.47182214 13.95108226 4.26393628 10.06116702 1 5 C0.67 3.35 0.34 1.7 0 0 Z " fill="#222221" transform="translate(310,195)"/>
<path d="M0 0 C4.95 0 9.9 0 15 0 C15.33 12.54 15.66 25.08 16 38 C18.454375 35.195 20.90875 32.39 23.4375 29.5 C31.6739284 20.69886664 31.6739284 20.69886664 37.9140625 19.87109375 C42.03211393 19.75529617 45.96015655 20.22641296 50 21 C44.44964797 27.78376359 38.23557973 33.85522968 32 40 C33.47709714 44.19159133 35.6340309 47.68421247 38.1328125 51.32421875 C38.52951141 51.91169388 38.92621033 52.49916901 39.33493042 53.10444641 C40.59384792 54.96851792 41.85866606 56.82846013 43.125 58.6875 C44.79952642 61.14623033 46.46798496 63.60891413 48.1328125 66.07421875 C49.24487061 67.70750122 49.24487061 67.70750122 50.37939453 69.3737793 C52 72 52 72 52 74 C40.4942126 75.66444226 40.4942126 75.66444226 35 74 C31.02085333 70.91866869 28.94735835 66.21747817 26.84619141 61.75292969 C25.72140756 59.42288122 24.35418171 57.28709826 22.9375 55.125 C22.298125 54.09375 21.65875 53.0625 21 52 C18.35953319 52.76970589 18.35953319 52.76970589 16 55 C15.19465266 58.37593526 15.20910383 61.72848603 15.1875 65.1875 C15.16236328 66.12787109 15.13722656 67.06824219 15.11132812 68.03710938 C15.05243186 70.35762227 15.02336008 72.67885736 15 75 C10.05 75 5.1 75 0 75 C0 50.25 0 25.5 0 0 Z " fill="#9D7338" transform="translate(541,299)"/>
<path d="M0 0 C6.35931265 3.29902909 11.14327337 8.31925516 14.0390625 14.875 C15.1640625 19.125 15.1640625 19.125 15.1640625 30.125 C2.2940625 30.125 -10.5759375 30.125 -23.8359375 30.125 C-20.93472057 39.34616347 -20.93472057 39.34616347 -17.6484375 42.25 C-12.5276655 43.84312907 -7.83174841 44.0167453 -2.8984375 41.8125 C-0.61721489 40.11402321 -0.61721489 40.11402321 1.1640625 37.125 C4.203125 36.83203125 4.203125 36.83203125 7.7890625 36.9375 C8.97757813 36.96457031 10.16609375 36.99164063 11.390625 37.01953125 C12.30585937 37.05433594 13.22109375 37.08914063 14.1640625 37.125 C11.49550675 44.58369619 8.3003573 49.30591096 1.28515625 53.15625 C-6.58118509 56.58883531 -14.62984592 55.74200634 -22.5859375 53.01953125 C-30.14310336 50.01503302 -33.23878663 45.14354519 -36.8359375 38.125 C-39.19263455 31.05490886 -39.01644332 21.86689852 -36.77734375 14.76953125 C-33.23081269 7.80141467 -28.51606571 3.45293942 -21.57421875 0 C-15.07107107 -2.07803863 -6.50233726 -2.00623078 0 0 Z " fill="#B99958" transform="translate(515.8359375,319.875)"/>
<path d="M0 0 C6.91935959 4.34756222 11.44995618 10.66673905 13.4375 18.5 C13.4375 22.13 13.4375 25.76 13.4375 29.5 C0.8975 29.5 -11.6425 29.5 -24.5625 29.5 C-23.0940148 36.98336897 -23.0940148 36.98336897 -18.5625 41.5 C-15.36488831 43.09880585 -12.04103047 42.86854319 -8.5625 42.5 C-4.5398783 40.93564712 -2.97100891 40.11276337 -0.5625 36.5 C2.4765625 36.20703125 2.4765625 36.20703125 6.0625 36.3125 C7.25101562 36.33957031 8.43953125 36.36664063 9.6640625 36.39453125 C10.57929688 36.42933594 11.49453125 36.46414063 12.4375 36.5 C10.45435316 43.22545449 7.22806405 47.94440315 1.36328125 51.8984375 C-6.08519533 55.6694795 -13.78088493 55.39311106 -21.75 53.4375 C-28.3916649 51.18841475 -33.36566298 46.84104429 -37 40.875 C-40.51882219 33.27434407 -41.16379821 23.53644832 -38.62109375 15.5390625 C-36.33170517 10.75933588 -33.74537329 6.82728558 -29.5625 3.5 C-28.69431641 2.80390625 -28.69431641 2.80390625 -27.80859375 2.09375 C-20.25601462 -3.06550709 -8.4263345 -3.67006366 0 0 Z " fill="#BC9D5B" transform="translate(288.5625,320.5)"/>
<path d="M0 0 C20.13 0 40.26 0 61 0 C61 4.62 61 9.24 61 14 C53.74 14 46.48 14 39 14 C39 34.13 39 54.26 39 75 C33.39 75 27.78 75 22 75 C22 54.87 22 34.74 22 14 C14.74 14 7.48 14 0 14 C0 9.38 0 4.76 0 0 Z " fill="#CCB771" transform="translate(424,299)"/>
<path d="M0 0 C5.28 0 10.56 0 16 0 C19.63 11.55 23.26 23.1 27 35 C27.9075 31.803125 28.815 28.60625 29.75 25.3125 C36.56129964 1.43870036 36.56129964 1.43870036 38 0 C40.53049402 -0.07313567 43.03304837 -0.09247527 45.5625 -0.0625 C46.62887695 -0.05573242 46.62887695 -0.05573242 47.71679688 -0.04882812 C49.47790013 -0.03700864 51.23896036 -0.01907263 53 0 C51.38339812 4.99497934 49.76592223 9.98967458 48.14770508 14.98413086 C47.5996249 16.67611411 47.05176594 18.36816904 46.50415039 20.06030273 C44.67598582 25.70901288 42.84127846 31.35555104 41 37 C40.75296326 37.75883484 40.50592651 38.51766968 40.25140381 39.29949951 C39.56032683 41.41824874 38.86495139 43.53553102 38.16796875 45.65234375 C37.77246826 46.85753662 37.37696777 48.06272949 36.96948242 49.30444336 C36 52 36 52 35 53 C32.13732433 53.07325168 29.299281 53.09238205 26.4375 53.0625 C25.63119141 53.05798828 24.82488281 53.05347656 23.99414062 53.04882812 C21.99606244 53.03700518 19.99802217 53.01906914 18 53 C14.5301822 44.20882678 11.37510695 35.35700241 8.4375 26.375 C5.98722645 18.90991789 3.49512261 11.48258447 0.71899414 4.13134766 C0 2 0 2 0 0 Z " fill="#D6C37A" transform="translate(306,320)"/>
<path d="M0 0 C3.53433608 1.37237518 5.42615796 3.13462314 7.234375 6.54296875 C9.28432158 13.12162385 9.5724136 22.02289973 6.3125 28.25 C2.75599547 32.47935674 0.62442958 33.76419571 -4.875 34.5625 C-9.14988466 34.40057255 -11.45017393 32.59484347 -14.5546875 29.80078125 C-19.18009602 24.03777226 -18.57385356 17.00984191 -18 10 C-16.75 6.4375 -16.75 6.4375 -15 4 C-14.505 3.21625 -14.01 2.4325 -13.5 1.625 C-9.39085819 -1.04594218 -4.76057099 -0.60207221 0 0 Z " fill="#20201E" transform="translate(396,330)"/>
<path d="M0 0 C3.54213083 -0.08118636 7.08238743 -0.14059277 10.625 -0.1875 C11.62402344 -0.21263672 12.62304688 -0.23777344 13.65234375 -0.26367188 C19.17275321 -0.31851038 23.28054692 -0.23776432 28 3 C29.26439585 5.5287917 29.31139804 7.48858029 29.4375 10.3125 C29.49808594 11.25738281 29.55867188 12.20226562 29.62109375 13.17578125 C28.90612813 16.42685135 27.74221539 18.07046578 25.06567383 20.06469727 C20.67114796 22.05446545 15.84688187 21.50149158 11.125 21.3125 C10.05507812 21.28994141 8.98515625 21.26738281 7.8828125 21.24414062 C5.25460308 21.18547524 2.62711786 21.09580252 0 21 C0 14.07 0 7.14 0 0 Z " fill="#151413" transform="translate(194,312)"/>
<path d="M0 0 C3.60401481 -0.08701039 7.20776012 -0.14039388 10.8125 -0.1875 C12.34874023 -0.22520508 12.34874023 -0.22520508 13.91601562 -0.26367188 C15.39038086 -0.27817383 15.39038086 -0.27817383 16.89453125 -0.29296875 C18.25348511 -0.31653442 18.25348511 -0.31653442 19.63989258 -0.34057617 C22.47425878 0.06843809 23.14741708 0.90599451 25 3 C27.60611077 3.72197162 27.60611077 3.72197162 30 4 C30.66 2.68 31.32 1.36 32 0 C38.93 0 45.86 0 53 0 C53 2.31 53 4.62 53 7 C35.51 7 18.02 7 0 7 C0 4.69 0 2.38 0 0 Z " fill="#37342B" transform="translate(338,182)"/>
<path d="M0 0 C4.07775269 0.04236626 5.41341106 0.14611952 8.875 2.5 C10.75 5.375 10.75 5.375 11.75 11.375 C4.16 11.375 -3.43 11.375 -11.25 11.375 C-11.25 6.375 -11.25 6.375 -8.8125 3.625 C-7.966875 2.8825 -7.12125 2.14 -6.25 1.375 C-4.53055699 -0.34444301 -2.34584777 0.08154016 0 0 Z " fill="#1C1B18" transform="translate(275.25,329.625)"/>
<path d="M0 0 C0.87269531 -0.01417969 1.74539063 -0.02835937 2.64453125 -0.04296875 C5.35938369 0.20307778 6.91759653 0.6974102 9.1875 2.1875 C11.11194725 5.41782218 12.1875 7.40573079 12.1875 11.1875 C4.5975 11.1875 -2.9925 11.1875 -10.8125 11.1875 C-10.8125 6.1875 -10.8125 6.1875 -8.375 3.4375 C-7.529375 2.695 -6.68375 1.9525 -5.8125 1.1875 C-4.16504404 -0.45995596 -2.25914549 0.0165384 0 0 Z " fill="#262523" transform="translate(503.8125,329.8125)"/>
<path d="M0 0 C2.97 0 5.94 0 9 0 C9.66 0.66 10.32 1.32 11 2 C10.66666667 4 10.33333333 6 10 8 C10.66 8.66 11.32 9.32 12 10 C12.3125 13 12.3125 13 12 16 C9 18 9 18 0 18 C0 12.06 0 6.12 0 0 Z " fill="#8B5D27" transform="translate(220,388)"/>
<path d="M0 0 C1.32 0 2.64 0 4 0 C5.17112946 2.62309099 6.33705964 5.24828142 7.5 7.875 C7.83386719 8.62136719 8.16773438 9.36773437 8.51171875 10.13671875 C8.98544922 11.20986328 8.98544922 11.20986328 9.46875 12.3046875 C9.90864258 13.2944458 9.90864258 13.2944458 10.35742188 14.30419922 C11 16 11 16 11 18 C10.01 18 9.02 18 8 18 C7.67 16.68 7.34 15.36 7 14 C3.7 14 0.4 14 -3 14 C-3.33 15.32 -3.66 16.64 -4 18 C-4.99 18 -5.98 18 -7 18 C-5.06375702 11.79522136 -2.74390859 5.89174281 0 0 Z " fill="#C8B672" transform="translate(337,388)"/>
<path d="M0 0 C4.5532212 1.1383053 5.08509512 1.92387988 7.75 5.5625 C8.36359375 6.38878906 8.9771875 7.21507812 9.609375 8.06640625 C10.06828125 8.70449219 10.5271875 9.34257812 11 10 C11.33 6.7 11.66 3.4 12 0 C12.99 0 13.98 0 15 0 C15 5.94 15 11.88 15 18 C14.01 18 13.02 18 12 18 C9.95703125 15.59375 9.95703125 15.59375 7.8125 12.5 C7.09707031 11.4790625 6.38164062 10.458125 5.64453125 9.40625 C5.10183594 8.6121875 4.55914062 7.818125 4 7 C3.67 10.63 3.34 14.26 3 18 C2.01 18 1.02 18 0 18 C0 12.06 0 6.12 0 0 Z " fill="#9C783F" transform="translate(504,388)"/>
<path d="M0 0 C6.93 0 13.86 0 21 0 C21 1.98 21 3.96 21 6 C12.42 6 3.84 6 -5 6 C-5.33 5.34 -5.66 4.68 -6 4 C-4.68 4 -3.36 4 -2 4 C-1.34 2.68 -0.68 1.36 0 0 Z " fill="#222222" transform="translate(370,182)"/>
<path d="M0 0 C0 1.32 0 2.64 0 4 C-1.093125 3.773125 -2.18625 3.54625 -3.3125 3.3125 C-6.81967646 2.6926947 -6.81967646 2.6926947 -9 4 C-10.55854182 7.11708365 -9.68784644 9.6858308 -9 13 C-4.51866426 13.72256829 -4.51866426 13.72256829 0 14 C0 13.01 0 12.02 0 11 C-1.32 11 -2.64 11 -4 11 C-4 10.01 -4 9.02 -4 8 C-1.36 8 1.28 8 4 8 C3.69393785 11.3666837 3.2999963 13.56154387 1.375 16.375 C-1.99264015 18.67917484 -4.00192592 18.63127485 -8 18 C-11.59565056 15.49867787 -13.2586565 13.23545712 -14.125 9 C-14.32607171 5.68231679 -13.99454471 4.99127153 -12.125 2 C-7.96832031 -0.660275 -4.79883879 -0.47047439 0 0 Z " fill="#8F642E" transform="translate(549,388)"/>
<path d="M0 0 C0.99 0 1.98 0 3 0 C5.04296875 2.40625 5.04296875 2.40625 7.1875 5.5 C8.26064453 7.03140625 8.26064453 7.03140625 9.35546875 8.59375 C9.89816406 9.3878125 10.44085938 10.181875 11 11 C11.33 7.37 11.66 3.74 12 0 C12.99 0 13.98 0 15 0 C15 5.94 15 11.88 15 18 C14.01 18 13.02 18 12 18 C10.30369687 16.03123367 8.80463882 14.11326838 7.3125 12 C6.89677734 11.42765625 6.48105469 10.8553125 6.05273438 10.265625 C5.02643139 8.85003468 4.01206601 7.42580369 3 6 C2.67 9.96 2.34 13.92 2 18 C1.34 18 0.68 18 0 18 C0 12.06 0 6.12 0 0 Z " fill="#DCD088" transform="translate(364,388)"/>
<path d="M0 0 C0.99 0 1.98 0 3 0 C3 2.31 3 4.62 3 7 C5.64 7 8.28 7 11 7 C11 4.69 11 2.38 11 0 C11.99 0 12.98 0 14 0 C14 5.61 14 11.22 14 17 C13.34 17 12.68 17 12 17 C12 14.69 12 12.38 12 10 C9.03 10 6.06 10 3 10 C3 12.64 3 15.28 3 18 C2.01 18 1.02 18 0 18 C0 12.06 0 6.12 0 0 Z " fill="#B59D5E" transform="translate(454,388)"/>
<path d="M0 0 C2.33294775 -0.04241723 4.66702567 -0.04092937 7 0 C8 1 8 1 8.1328125 3.6875 C8.13023437 4.780625 8.12765625 5.87375 8.125 7 C8.12757813 8.093125 8.13015625 9.18625 8.1328125 10.3125 C8 13 8 13 7 14 C4 14.125 4 14.125 1 14 C0 13 0 13 -0.09765625 10.05859375 C-0.08605469 8.86363281 -0.07445312 7.66867188 -0.0625 6.4375 C-0.05347656 5.23996094 -0.04445313 4.04242188 -0.03515625 2.80859375 C-0.02355469 1.88175781 -0.01195312 0.95492187 0 0 Z " fill="#252422" transform="translate(361,233)"/>
<path d="M0 0 C0.66 0 1.32 0 2 0 C2.06058594 0.92683594 2.12117187 1.85367187 2.18359375 2.80859375 C2.26738281 4.00613281 2.35117188 5.20367187 2.4375 6.4375 C2.51871094 7.63246094 2.59992188 8.82742188 2.68359375 10.05859375 C2.67656114 12.88570244 2.67656114 12.88570244 4 14 C5.65 14 7.3 14 9 14 C9.33 9.38 9.66 4.76 10 0 C10.99 0 11.98 0 13 0 C13.10823773 2.24893954 13.18569645 4.49937575 13.25 6.75 C13.29640625 8.00296875 13.3428125 9.2559375 13.390625 10.546875 C13 14 13 14 11.17578125 16.42578125 C8.25622661 18.53813407 6.52593763 18.52513965 3 18 C1.328125 16.953125 1.328125 16.953125 0 15 C-0.2172101 12.35003674 -0.28351554 9.94923442 -0.1875 7.3125 C-0.17396484 6.61060547 -0.16042969 5.90871094 -0.14648438 5.18554688 C-0.11120182 3.45670171 -0.05739583 1.72825235 0 0 Z " fill="#A17A3F" transform="translate(249,388)"/>
<path d="M0 0 C3.5 1.875 3.5 1.875 6 4 C6 4.66 6 5.32 6 6 C-0.27 6 -6.54 6 -13 6 C-9.96683766 -0.06632469 -6.4600503 -1.02192886 0 0 Z " fill="#312E27" transform="translate(353,170)"/>
<path d="M0 0 C4.24925258 0.78992516 6.08910865 2.84653437 9 6 C9.37125 4.7934375 9.37125 4.7934375 9.75 3.5625 C11 1 11 1 13.125 0.1875 C13.74375 0.125625 14.3625 0.06375 15 0 C13.93580316 2.21025497 12.86760706 4.18535011 11.4375 6.1875 C9.47047313 10.03603083 9.26970635 13.73119952 9 18 C8.01 18 7.02 18 6 18 C5.938125 16.700625 5.87625 15.40125 5.8125 14.0625 C5.23940644 8.59206147 2.9285997 4.57120912 0 0 Z " fill="#DCD086" transform="translate(395,388)"/>
<path d="M0 0 C3.8065231 0.74407344 4.76608727 1.85221388 7 5 C7.66 5 8.32 5 9 5 C9.474375 4.175 9.94875 3.35 10.4375 2.5 C10.953125 1.675 11.46875 0.85 12 0 C12.99 0 13.98 0 15 0 C14.05916753 2.60538222 13.29612862 4.66833595 11.4375 6.75 C9.21809807 10.2238465 9.25084684 13.95185104 9 18 C8.01 18 7.02 18 6 18 C5.98582031 17.3709375 5.97164063 16.741875 5.95703125 16.09375 C5.58839741 9.47826706 3.99062213 5.27174436 0 0 Z " fill="#A98A4E" transform="translate(278,388)"/>
<path d="M0 0 C2 1.4375 2 1.4375 3 3 C3 3.66 3 4.32 3 5 C-2.61 5 -8.22 5 -14 5 C-12 1 -12 1 -10.375 -0.3125 C-6.797496 -1.34809326 -3.57905384 -0.94225621 0 0 Z " fill="#31302A" transform="translate(386,171)"/>
<path d="M0 0 C0.66 0 1.32 0 2 0 C3.4216319 3.3171411 4.39009109 6.44219804 5 10 C2.03 10 -0.94 10 -4 10 C-4.33 11.32 -4.66 12.64 -5 14 C-5.99 14 -6.98 14 -8 14 C-7.25 10.625 -7.25 10.625 -6 7 C-4 5.875 -4 5.875 -2 5 C-0.71745356 2.46229997 -0.71745356 2.46229997 0 0 Z " fill="#B5A366" transform="translate(338,392)"/>
<path d="M0 0 C3.96 0 7.92 0 12 0 C12 0.66 12 1.32 12 2 C10.35 2 8.7 2 7 2 C7 7.28 7 12.56 7 18 C6.34 18 5.68 18 5 18 C5 12.72 5 7.44 5 2 C3.35 2 1.7 2 0 2 C0 1.34 0 0.68 0 0 Z " fill="#D7C379" transform="translate(426,388)"/>
<path d="M0 0 C2.64 0 5.28 0 8 0 C7.69393785 3.3666837 7.2999963 5.56154387 5.375 8.375 C2.16391273 10.57205971 -0.19658751 10.29257019 -4 10 C-4 9.67 -4 9.34 -4 9 C-3.195625 8.87625 -2.39125 8.7525 -1.5625 8.625 C-0.716875 8.41875 0.12875 8.2125 1 8 C1.33 7.34 1.66 6.68 2 6 C2.66 6 3.32 6 4 6 C4 5.01 4 4.02 4 3 C2.68 3 1.36 3 0 3 C0 2.01 0 1.02 0 0 Z " fill="#7A5326" transform="translate(545,396)"/>
<path d="M0 0 C2.875 -0.125 2.875 -0.125 6 0 C6.66 0.66 7.32 1.32 8 2 C7.625 4.125 7.625 4.125 7 6 C4.69 6 2.38 6 0 6 C0 4.02 0 2.04 0 0 Z " fill="#221B14" transform="translate(222,397)"/>
<path d="M0 0 C0.66 0 1.32 0 2 0 C2.02578125 0.90363281 2.0515625 1.80726563 2.078125 2.73828125 C2.13484375 3.91777344 2.1915625 5.09726562 2.25 6.3125 C2.29640625 7.48425781 2.3428125 8.65601563 2.390625 9.86328125 C2.70054149 13.09478682 2.70054149 13.09478682 5.046875 14.91796875 C5.69140625 15.27503906 6.3359375 15.63210938 7 16 C6.34 16 5.68 16 5 16 C5 16.66 5 17.32 5 18 C1.125 16.125 1.125 16.125 0 15 C-0.07313567 12.46950598 -0.09247527 9.96695163 -0.0625 7.4375 C-0.05798828 6.72658203 -0.05347656 6.01566406 -0.04882812 5.28320312 C-0.03700864 3.52209987 -0.01907263 1.76103964 0 0 Z " fill="#9A7239" transform="translate(249,388)"/>
<path d="M0 0 C0 1.32 0 2.64 0 4 C-1.60875 3.6596875 -1.60875 3.6596875 -3.25 3.3125 C-6.89090616 2.64793576 -6.89090616 2.64793576 -9.25 4.3125 C-9.8275 4.869375 -10.405 5.42625 -11 6 C-11.99 6.66 -12.98 7.32 -14 8 C-13.63515574 5.44609016 -12.94055033 3.9108255 -11.5 1.75 C-7.80600629 -0.8357956 -4.37436583 -0.33648968 0 0 Z " fill="#855C2B" transform="translate(549,388)"/>
<path d="M0 0 C1.98 0 3.96 0 6 0 C6 1.65 6 3.3 6 5 C4.02 5 2.04 5 0 5 C0 3.35 0 1.7 0 0 Z " fill="#281F15" transform="translate(222,390)"/>
<path d="M0 0 C0.66 0 1.32 0 2 0 C2.66 2.31 3.32 4.62 4 7 C2.02 7 0.04 7 -2 7 C-1.34 4.69 -0.68 2.38 0 0 Z " fill="#25231E" transform="translate(338,392)"/>
<path d="M0 0 C0.99 0.33 1.98 0.66 3 1 C3 2.98 3 4.96 3 7 C0.29120665 8.35439668 -2.00933268 8.06501451 -5 8 C-2 6 -2 6 0 5 C0 3.35 0 1.7 0 0 Z " fill="#93642C" transform="translate(229,397)"/>
<path d="M0 0 C1.75 0.125 1.75 0.125 4 1 C6.25 4.0625 6.25 4.0625 8 7 C5.6875 6.875 5.6875 6.875 3 6 C1.1875 2.9375 1.1875 2.9375 0 0 Z " fill="#D2C883" transform="translate(395,388)"/>
</svg>
